<?xml version="1.0" standalone="no"?>
<!DOCTYPE svg PUBLIC "-//W3C//DTD SVG 1.1//EN" "http://www.w3.org/Graphics/SVG/1.1/DTD/svg11.dtd">
<svg xmlns="http://www.w3.org/2000/svg" viewBox="0 0 258.92 79.62" width="258.9200134277344" height="79.62000274658203"><defs><style>.cls-1,.cls-2{fill:#fff;}.cls-2{opacity:0.66;}</style></defs><g id="Capa_2" data-name="Capa 2"><g id="Diseño"><polygon class="cls-1" points="104.52 58.38 105.92 58.38 105.92 54.66 109.02 54.66 109.02 53.45 105.92 53.45 105.92 51.06 109.28 51.06 109.28 49.83 104.52 49.83 104.52 58.38"/><path class="cls-1" d="M113.19,52a3.06,3.06,0,0,0-3.09,3.3,3,3,0,0,0,3,3.2,3.07,3.07,0,0,0,3.11-3.3A3,3,0,0,0,113.19,52Zm0,5.36c-.94,0-1.62-.88-1.62-2.1,0-1.05.51-2.12,1.65-2.12s1.59,1.38,1.59,2.1C114.76,56.48,114.08,57.37,113.14,57.37Z"/><path class="cls-1" d="M118.94,52.88l0-.73h-1.28v.18c0,.5,0,1.06,0,1.82v4.23h1.39V55.07a3.23,3.23,0,0,1,0-.47,1.34,1.34,0,0,1,1.27-1.24,1.61,1.61,0,0,1,.33,0l.21,0V52.09l-.13,0A1.78,1.78,0,0,0,118.94,52.88Z"/><path class="cls-1" d="M124.55,52c-1.73,0-2.93,1.38-2.93,3.35a2.91,2.91,0,0,0,3.07,3.14,5,5,0,0,0,2-.38l.12-.06L126.58,57l-.18.07a3.54,3.54,0,0,1-1.57.3A1.71,1.71,0,0,1,123,55.63h4.11l0-.2c0-.12,0-.28,0-.47C127.16,53.6,126.48,52,124.55,52Zm1.23,2.51H123a1.56,1.56,0,0,1,1.45-1.4,1.2,1.2,0,0,1,.9.34A1.74,1.74,0,0,1,125.78,54.52Z"/><path class="cls-1" d="M130.76,54.63c-.79-.3-1-.48-1-.84s.33-.64.82-.64a2,2,0,0,1,1.11.32l.18.11.39-1.11-.12-.07a3.2,3.2,0,0,0-1.54-.39,2,2,0,0,0-2.2,1.9c0,.56.29,1.34,1.67,1.83.83.3,1,.56,1,.92s-.36.71-1,.71a2.61,2.61,0,0,1-1.32-.4l-.19-.12L128.18,58l.12.07a3.55,3.55,0,0,0,1.74.42c1.45,0,2.38-.76,2.38-1.93C132.42,55.66,131.91,55.07,130.76,54.63Z"/><path class="cls-1" d="M135.57,50.4l-1.38.37v1.38h-.92V53.3h.92v3.05a2.28,2.28,0,0,0,.45,1.64,1.63,1.63,0,0,0,1.29.51,2.64,2.64,0,0,0,1-.16l.11,0L137,57.16l-.2.06a2.15,2.15,0,0,1-.57.07c-.33,0-.64-.12-.64-1v-3h1.54V52.15h-1.54Z"/><path class="cls-1" d="M145.57,50.92a3.68,3.68,0,0,1,1.58.33l.18.09.36-1.19-.13-.07a4.49,4.49,0,0,0-2-.38,4.27,4.27,0,0,0-4.46,4.48,4,4,0,0,0,4.22,4.32,5.37,5.37,0,0,0,2.25-.41l.12-.06-.31-1.17-.18.09a4.09,4.09,0,0,1-1.66.32,2.81,2.81,0,0,1-3-3.13C142.54,52.13,143.67,50.92,145.57,50.92Z"/><path class="cls-1" d="M151.4,52a3.06,3.06,0,0,0-3.09,3.3,3,3,0,0,0,3,3.2,3.06,3.06,0,0,0,3.1-3.3A3,3,0,0,0,151.4,52Zm0,5.36c-.94,0-1.63-.88-1.63-2.1,0-1.05.51-2.12,1.65-2.12s1.6,1.38,1.6,2.1C153,56.48,152.3,57.37,151.36,57.37Z"/><path class="cls-1" d="M162.35,52a2.18,2.18,0,0,0-1.4.45,2.72,2.72,0,0,0-.55.57,1.89,1.89,0,0,0-1.7-1,2.15,2.15,0,0,0-1.74.8l0-.66h-1.28l0,.18c0,.45,0,.92,0,1.58v4.47h1.39V54.65a1.4,1.4,0,0,1,.08-.47,1.29,1.29,0,0,1,1.16-1c.67,0,1.07.54,1.07,1.45v3.7h1.38V54.57a1.51,1.51,0,0,1,.08-.48,1.22,1.22,0,0,1,1.1-.86c.92,0,1.11.89,1.11,1.64v3.51h1.39V54.74C164.46,52.14,162.71,52,162.35,52Z"/><path class="cls-1" d="M172.79,52a2.18,2.18,0,0,0-1.4.45,2.49,2.49,0,0,0-.55.57,1.89,1.89,0,0,0-1.7-1,2.17,2.17,0,0,0-1.75.8l0-.66h-1.28v.18c0,.45,0,.92,0,1.58v4.47h1.39V54.65a1.41,1.41,0,0,1,.07-.47,1.31,1.31,0,0,1,1.17-1c.67,0,1.06.54,1.06,1.45v3.7h1.39V54.57a1.85,1.85,0,0,1,.07-.48,1.22,1.22,0,0,1,1.11-.86c.74,0,1.11.55,1.11,1.64v3.51h1.39V54.74C174.9,52.14,173.14,52,172.79,52Z"/><path class="cls-1" d="M179.09,52c-1.73,0-2.94,1.38-2.94,3.35a2.91,2.91,0,0,0,3.07,3.14,5,5,0,0,0,2-.38l.13-.06L181.12,57l-.19.07a3.49,3.49,0,0,1-1.56.3,1.72,1.72,0,0,1-1.85-1.71h4.12l0-.2c0-.12,0-.28,0-.47C181.69,53.6,181,52,179.09,52Zm1.22,2.51h-2.76a1.57,1.57,0,0,1,1.45-1.4,1.18,1.18,0,0,1,.9.34A1.62,1.62,0,0,1,180.31,54.52Z"/><path class="cls-1" d="M184.2,52.88l0-.73H182.9v.18c0,.5.05,1.06.05,1.82v4.23h1.4V55.07a3.3,3.3,0,0,1,0-.47,1.34,1.34,0,0,1,1.27-1.24,1.61,1.61,0,0,1,.33,0l.21,0V52.09l-.13,0A1.78,1.78,0,0,0,184.2,52.88Z"/><path class="cls-1" d="M190,53.21a2.28,2.28,0,0,1,1.16.26l.18.11.35-1.17-.13-.06A3.71,3.71,0,0,0,190,52a3.18,3.18,0,0,0-3.34,3.3,3,3,0,0,0,3.11,3.18,4.06,4.06,0,0,0,1.77-.36l.12-.06L191.41,57l-.19.08a2.78,2.78,0,0,1-1.25.28,2.06,2.06,0,0,1,0-4.1Z"/><path class="cls-1" d="M193.54,49.82a.82.82,0,0,0-.84.84.8.8,0,0,0,.82.82.84.84,0,0,0,.63-.25.75.75,0,0,0,.22-.57A.81.81,0,0,0,193.54,49.82Z"/><rect class="cls-1" x="192.84" y="52.15" width="1.41" height="6.23"/><path class="cls-1" d="M200.45,56.8V54.59A2.26,2.26,0,0,0,198,52a3.8,3.8,0,0,0-2,.55l-.11.07.35,1,.18-.12a2.85,2.85,0,0,1,1.45-.41,1,1,0,0,1,1.17,1.15,4.21,4.21,0,0,0-3,.91,2,2,0,0,0-.58,1.45,1.85,1.85,0,0,0,2,1.86,2.42,2.42,0,0,0,1.72-.67l.06.54h1.33l0-.2A8.4,8.4,0,0,1,200.45,56.8Zm-2.69.58a.78.78,0,0,1-.85-.85.87.87,0,0,1,.27-.67,2.7,2.7,0,0,1,1.89-.49h0v.86a1,1,0,0,1,0,.28A1.31,1.31,0,0,1,197.76,57.38Z"/><rect class="cls-1" x="202.12" y="49.39" width="1.41" height="8.99"/><rect class="cls-1" x="205.27" y="52.15" width="1.41" height="6.23"/><path class="cls-1" d="M206,49.82a.82.82,0,0,0-.83.84.8.8,0,0,0,.81.82.82.82,0,0,0,.63-.25.75.75,0,0,0,.22-.57A.81.81,0,0,0,206,49.82Z"/><path class="cls-1" d="M210.13,56.51,212.79,53l0-.89H208v1.2h3l-.56.66-2.7,3.52v.85h5.13V57.19h-3.27C209.79,57,210,56.73,210.13,56.51Z"/><path class="cls-1" d="M216.31,52c-1.72,0-2.93,1.38-2.93,3.35a2.91,2.91,0,0,0,3.07,3.14,5,5,0,0,0,2-.38l.13-.06L218.35,57l-.19.07a3.54,3.54,0,0,1-1.57.3,1.71,1.71,0,0,1-1.84-1.71h4.12l0-.2c0-.12,0-.28,0-.47C218.92,53.6,218.24,52,216.31,52Zm1.23,2.51h-2.76a1.56,1.56,0,0,1,1.45-1.4,1.18,1.18,0,0,1,.9.34A1.62,1.62,0,0,1,217.54,54.52Z"/><path class="cls-1" d="M223.31,52.05a1.78,1.78,0,0,0-1.88.83l0-.73h-1.28v.18c0,.5.05,1.06.05,1.82v4.23h1.4V55.07a3.17,3.17,0,0,1,0-.47,1.34,1.34,0,0,1,1.27-1.24,1.61,1.61,0,0,1,.33,0l.21,0V52.09Z"/><path class="cls-1" d="M67.49,63.3l2.2-2a32.64,32.64,0,1,0-50-7.38l.9,1.33-5,.5a35.1,35.1,0,0,1-5-18.58A37.16,37.16,0,1,1,74.63,62.77l-.52.53Z"/><path class="cls-2" d="M68.88,50.06,48.33,10.51a.43.43,0,0,0-.75,0l-20.89,40a2.44,2.44,0,0,0,2.13,3.57l14.37.23V70.81l10,2.51V54.44L66,54.65A3.14,3.14,0,0,0,68.88,50.06Z"/><path class="cls-1" d="M48.28,72.08l5,1.24V54.45l12.81.21a3.15,3.15,0,0,0,2.84-4.59L48.34,10.51a.42.42,0,0,0-.37-.22"/><path class="cls-1" d="M.26,75.58s9.67-7.53,21.89-7S54,78.18,67.7,77.34a40.43,40.43,0,0,0,26.21-11.8S88.31,79.1,68.46,79.6s-33.85-8.29-46.57-8.29A54.58,54.58,0,0,0,.26,75.58Z"/><path class="cls-1" d="M39.67,64.26V61.57C33,59.69,26.66,58,21.59,57.75c-12-.5-21.59,7-21.59,7a53.25,53.25,0,0,1,21.34-4.27C27.05,60.51,33,62.33,39.67,64.26Z"/><path class="cls-1" d="M55.74,68.06a66.91,66.91,0,0,0,11.55.74C86.88,68.3,92.4,54.74,92.4,54.74a39.65,39.65,0,0,1-25.86,11.8,45.33,45.33,0,0,1-10.8-.9Z"/><path class="cls-1" d="M39.67,69.58V66.89C33,65,26.66,63.28,21.59,63.06c-12-.5-21.59,7-21.59,7a53.35,53.35,0,0,1,21.34-4.26C27.05,65.83,33,67.64,39.67,69.58Z"/><path class="cls-1" d="M55.74,73.37a65.93,65.93,0,0,0,11.55.74c19.59-.5,25.11-14.06,25.11-14.06a39.6,39.6,0,0,1-25.86,11.8,44.32,44.32,0,0,1-10.8-.9Z"/><path class="cls-1" d="M105.26,40V26.55h4.35a15.33,15.33,0,0,1,3.22.2,3.52,3.52,0,0,1,1.93,1.31,4.18,4.18,0,0,1,.78,2.61,4.35,4.35,0,0,1-.45,2.08A3.82,3.82,0,0,1,114,34.08a3.87,3.87,0,0,1-1.4.63,15.41,15.41,0,0,1-2.81.19H108V40ZM108,28.82v3.8h1.48a7,7,0,0,0,2.14-.21,1.76,1.76,0,0,0,.85-.66,1.73,1.73,0,0,0,.31-1,1.77,1.77,0,0,0-.43-1.21,1.92,1.92,0,0,0-1.09-.59,13.18,13.18,0,0,0-2-.09Z"/><path class="cls-1" d="M128.48,40h-2.95l-1.17-3H119l-1.11,3H115l5.23-13.42h2.86Zm-5-5.31-1.85-5-1.82,5Z"/><path class="cls-1" d="M138.5,35l2.63.83a6,6,0,0,1-2,3.27,6.31,6.31,0,0,1-8-.76,7,7,0,0,1-1.72-5,7.31,7.31,0,0,1,1.73-5.2,5.91,5.91,0,0,1,4.55-1.85,5.59,5.59,0,0,1,4,1.45,5.29,5.29,0,0,1,1.37,2.47l-2.68.64a2.78,2.78,0,0,0-2.83-2.25,3.06,3.06,0,0,0-2.42,1.07,5.26,5.26,0,0,0-.93,3.47,5.64,5.64,0,0,0,.91,3.63,3,3,0,0,0,2.38,1.08,2.7,2.7,0,0,0,1.86-.69A4,4,0,0,0,138.5,35Z"/><path class="cls-1" d="M143.37,40V26.55h2.71V40Z"/><path class="cls-1" d="M148.68,40V26.55h9.2v2.27h-6.49V32H157v2.27h-5.6V40Z"/><path class="cls-1" d="M160,40V26.55h2.71V40Z"/><path class="cls-1" d="M173.91,35l2.63.83a6,6,0,0,1-2,3.27,6.31,6.31,0,0,1-8-.76,7,7,0,0,1-1.72-5,7.31,7.31,0,0,1,1.73-5.2,5.91,5.91,0,0,1,4.55-1.85,5.59,5.59,0,0,1,4,1.45,5.29,5.29,0,0,1,1.37,2.47l-2.68.64A2.78,2.78,0,0,0,171,28.63a3.06,3.06,0,0,0-2.42,1.07,5.26,5.26,0,0,0-.93,3.47,5.64,5.64,0,0,0,.91,3.63,3,3,0,0,0,2.38,1.08,2.71,2.71,0,0,0,1.86-.69A4,4,0,0,0,173.91,35Z"/><path class="cls-1" d="M184.8,40.06V26.64h9v1.59h-7.28v4.15h6.3V34h-6.3v6.09Z"/><path class="cls-1" d="M195.62,33.53a7.35,7.35,0,0,1,1.79-5.24,6.11,6.11,0,0,1,4.64-1.89,6.48,6.48,0,0,1,3.35.89,5.8,5.8,0,0,1,2.27,2.48,8.07,8.07,0,0,1,.78,3.6,7.88,7.88,0,0,1-.82,3.65,5.58,5.58,0,0,1-2.34,2.44,6.55,6.55,0,0,1-3.25.83,6.33,6.33,0,0,1-3.39-.91,5.87,5.87,0,0,1-2.26-2.5A7.51,7.51,0,0,1,195.62,33.53Zm1.83,0a5.39,5.39,0,0,0,1.3,3.83,4.57,4.57,0,0,0,6.58,0,5.71,5.71,0,0,0,1.29-4,6.88,6.88,0,0,0-.55-2.86,4.23,4.23,0,0,0-1.62-1.89,4.39,4.39,0,0,0-2.4-.68,4.52,4.52,0,0,0-3.24,1.3C197.9,30.09,197.45,31.53,197.45,33.55Z"/><path class="cls-1" d="M210.77,40.06V26.64h5.95a7.94,7.94,0,0,1,2.73.36,3,3,0,0,1,1.49,1.28,3.84,3.84,0,0,1,.56,2,3.35,3.35,0,0,1-.93,2.41A4.67,4.67,0,0,1,217.72,34a4.52,4.52,0,0,1,1.07.67,8.94,8.94,0,0,1,1.47,1.78l2.34,3.65h-2.24l-1.77-2.79c-.52-.81-1-1.42-1.28-1.85a4.2,4.2,0,0,0-.91-.9,2.4,2.4,0,0,0-.81-.35,4.6,4.6,0,0,0-1-.07h-2.06v6Zm1.78-7.49h3.81a5.69,5.69,0,0,0,1.91-.26,2,2,0,0,0,1-.8,2.17,2.17,0,0,0,.36-1.21,2,2,0,0,0-.69-1.56,3.24,3.24,0,0,0-2.19-.61h-4.24Z"/><path class="cls-1" d="M224.32,40.06V26.64H234v1.59h-7.93v4.11h7.43v1.57h-7.43v4.57h8.24v1.58Z"/><path class="cls-1" d="M236.18,35.75l1.68-.15a3.7,3.7,0,0,0,.55,1.66,3,3,0,0,0,1.35,1,5,5,0,0,0,2.06.4,5,5,0,0,0,1.8-.3,2.49,2.49,0,0,0,1.15-.83,1.89,1.89,0,0,0,.38-1.15,1.75,1.75,0,0,0-.36-1.1,2.78,2.78,0,0,0-1.21-.8c-.36-.14-1.16-.35-2.39-.65A12.52,12.52,0,0,1,238.6,33a3.54,3.54,0,0,1-1.43-1.25,3,3,0,0,1-.48-1.67,3.45,3.45,0,0,1,.58-1.9A3.63,3.63,0,0,1,239,26.87a6.46,6.46,0,0,1,2.46-.46,6.74,6.74,0,0,1,2.63.48,3.82,3.82,0,0,1,1.75,1.42,4,4,0,0,1,.66,2.11l-1.7.13a2.72,2.72,0,0,0-.93-1.92,3.65,3.65,0,0,0-2.34-.65,3.79,3.79,0,0,0-2.35.59,1.76,1.76,0,0,0-.73,1.42,1.5,1.5,0,0,0,.52,1.19,7.09,7.09,0,0,0,2.68,1,17.56,17.56,0,0,1,3,.86,4.13,4.13,0,0,1,1.73,1.36,3.37,3.37,0,0,1,.56,1.91,3.64,3.64,0,0,1-.62,2,4.1,4.1,0,0,1-1.76,1.48,6.18,6.18,0,0,1-2.59.52,7.79,7.79,0,0,1-3.05-.53,4.28,4.28,0,0,1-1.93-1.6A4.54,4.54,0,0,1,236.18,35.75Z"/><path class="cls-1" d="M252.71,40.06V28.23h-4.43V26.64h10.64v1.59h-4.44V40.06Z"/></g></g></svg>